<svg id="Layer_2" data-name="Layer 2" xmlns="http://www.w3.org/2000/svg" viewBox="0 0 52 24"><defs><style>.cls-1{fill:#3ca9ed;}</style></defs><title>logo-dark</title><path class="cls-1" d="M11.67,5A5.6,5.6,0,0,0,8.12,6.24,8.45,8.45,0,0,0,5.59,9.88a13.81,13.81,0,0,0-1,5.15,5.84,5.84,0,0,0,1,3.78A4,4,0,0,0,8.92,20a13.59,13.59,0,0,0,5-1.17v4A16.13,16.13,0,0,1,8,24,7.62,7.62,0,0,1,2.1,21.72,9.16,9.16,0,0,1,0,15.27,17.3,17.3,0,0,1,1.55,7.93,12,12,0,0,1,5.7,2.83a10.45,10.45,0,0,1,6-1.74A14.45,14.45,0,0,1,15,1.42a12.45,12.45,0,0,1,3.1,1.26L16.32,6.49A12.45,12.45,0,0,0,13.71,5.3,7.53,7.53,0,0,0,11.67,5Z"/><path class="cls-1" d="M21.59,23.7H17.1l3.54-17h4.49Zm-0.24-21a2.64,2.64,0,0,1,.71-2,2.79,2.79,0,0,1,2-.68,2.53,2.53,0,0,1,1.66.47,1.67,1.67,0,0,1,.57,1.36,2.89,2.89,0,0,1-.66,2,2.55,2.55,0,0,1-2,.75Q21.36,4.55,21.36,2.68Z"/><path class="cls-1" d="M33.25,24a6.59,6.59,0,0,1-4.86-1.72,6.54,6.54,0,0,1-1.73-4.86,13.25,13.25,0,0,1,1.23-5.75,9.33,9.33,0,0,1,3.33-4A8.56,8.56,0,0,1,36,6.35,6.22,6.22,0,0,1,40.1,7.59,4.21,4.21,0,0,1,41.58,11a4.89,4.89,0,0,1-2.49,4.39A13.57,13.57,0,0,1,32,16.93H31.21l0,0.32v0.3a3,3,0,0,0,.77,2.19,2.91,2.91,0,0,0,2.2.8,8.93,8.93,0,0,0,2.36-.29,15.31,15.31,0,0,0,2.56-1v3.46A12.62,12.62,0,0,1,33.25,24ZM35.7,9.66a3.42,3.42,0,0,0-2.48,1.22,5.92,5.92,0,0,0-1.52,3h0.67A7.3,7.3,0,0,0,36,13.1a2.24,2.24,0,0,0,1.29-2A1.33,1.33,0,0,0,35.7,9.66Z"/><path class="cls-1" d="M47.08,23.7H42.59L47.51,0H52Z"/></svg>